<?xml version="1.0" encoding="utf-8"?>
<!-- Generator: Adobe Illustrator 27.0.1, SVG Export Plug-In . SVG Version: 6.00 Build 0)  -->
<svg version="1.1" xmlns="http://www.w3.org/2000/svg" xmlns:xlink="http://www.w3.org/1999/xlink" x="0px" y="0px"
   viewBox="0 0 1910 550" style="enable-background:new 0 0 4283.38 1835.63;" xml:space="preserve">


   <g transform="translate(-180,-637)">


         <polygon class="st3" id="f" points="335.85,968.49 524.64,968.49 524.64,855.88 335.85,855.88 335.85,796.92 555.77,796.92 555.77,675.7
			190.12,675.7 190.12,1148.66 335.85,1148.66 		" />
         <path class="st3" id="u" d="M592.16,675.7v292.78c0,123.87,65.58,191.44,215.95,191.44c147.72,0,215.28-64.92,215.28-190.77V675.7H877.65
			v274.9c0,60.94-19.21,91.41-68.89,91.41c-64.25,0-70.88-47.03-70.88-102.68V675.7H592.16z" />
         <polygon class="st3" id="n" points="1510.2,1148.66 1510.2,675.7 1372.42,675.7 1372.42,928.08 1371.09,928.08 1233.31,675.7
			1084.27,675.7 1084.27,1148.66 1222.05,1148.66 1222.05,890.32 1223.37,890.32 1368.44,1148.66 		" />
         <polygon class="st3" id="k" points="1577.04,675.7 1577.04,1148.66 1722.78,1148.66 1722.78,1008.89 1763.18,964.51 1879.77,1148.66
			2061.26,1148.66 1861.88,860.52 2033.44,675.7 1853.93,675.7 1724.1,838.66 1722.78,838.66 1722.78,675.7 		" />



      </g>

</svg>
