<?xml version="1.0" encoding="utf-8"?>
<!-- Generator: Adobe Illustrator 27.0.1, SVG Export Plug-In . SVG Version: 6.00 Build 0)  -->
<svg version="1.1" xmlns="http://www.w3.org/2000/svg" xmlns:xlink="http://www.w3.org/1999/xlink" x="0px" y="0px"
	viewBox="0 0 4000 550" style="enable-background:new 0 0 4283.38 1835.63;" xml:space="preserve">


	<g transform="translate(-180,-1170)">


		<polygon class="st3" id="M" points="740.58,1207.36 533.25,1207.36 465.68,1485.57 464.36,1485.57 396.8,1207.36 189.46,1207.36
			189.46,1680.32 327.24,1680.32 327.24,1376.94 328.57,1376.94 410.71,1680.32 519.34,1680.32 601.48,1376.94 602.8,1376.94
			602.8,1680.32 732.57,1680.32 740.58,1658.56 		" />
		<path class="st3" id="A1-top" d="M971.76,1374.07c26.78-35.93,54.28-72.75,105.67-89.15l-28.24-77.55H906.78l-99.46,270.01
			C902.37,1467.1,936.22,1421.75,971.76,1374.07z" />
		<path class="st3" id="A1-bottom" d="M1011.78,1403.9c-39.46,52.93-88.1,118.06-223.41,124.93l-47.79,129.73v21.77H878.3l21.86-67.57h150.37
			l19.87,67.57h151.03l-126.88-348.44C1057.02,1343.24,1037.01,1370.05,1011.78,1403.9z" />
		<polygon class="st3" id="wtf-1" points="732.57,1680.32 740.58,1680.32 740.58,1658.56 		" />
		<polygon class="st3" id="H0" points="1509.52,1371.64 1373.06,1371.64 1373.06,1207.36 1227.33,1207.36 1227.33,1680.32 1373.06,1680.32
			1373.06,1492.86 1509.52,1492.86 1509.52,1680.32 1655.25,1680.32 1655.25,1207.36 1509.52,1207.36 		" />
		<polygon class="st3" id="A2-bottom" points="2020.32,1325.99 1930.53,1325.99 1930.53,1529.46 1716.06,1529.46 1660.49,1680.32 1806.22,1680.32
			1828.08,1612.76 1978.44,1612.76 1998.32,1680.32 2142.01,1680.32 2142.01,1660.17 		" />
		<polygon class="st3" id="A2-top" points="1880.63,1276.08 2002.14,1276.08 1977.12,1207.36 1834.7,1207.36 1734.44,1479.55 1880.63,1479.55
			" />
		<path class="st3" id="R1"
			d="M2503.02,1461.07c44.38-15.9,70.88-64.92,70.88-118.57c0-41.73-14.57-75.51-43.72-98.7
			c-29.81-23.85-66.24-36.43-107.97-36.43h-280.2v452.81l7.34,20.15h138.39v-164.94h79.49c37.09,0,58.29,23.85,62.27,72.2
			c3.31,48.36,7.29,78.83,13.25,92.74h145.73c-7.95-13.25-13.25-43.06-14.58-79.49C2571.25,1521.35,2544.09,1476.96,2503.02,1461.07
			z M2366.56,1414.03h-78.83v-94.06h70.88c43.06,0,69.55,11.92,69.55,47.03C2428.17,1398.8,2407.63,1414.03,2366.56,1414.03z" />
		<polygon class="st3" id="wtf2" points="2142.01,1680.32 2149.34,1680.32 2142.01,1660.17 		" />
		<rect x="2619.55" y="1207.36" class="st3" width="145.73" height="472.96" />
		<path class="st3" id="S" d="M3058.05,1384.23c-84.79-19.21-104.66-33.12-104.66-51.67c0-21.2,21.85-31.8,52.32-31.8
			c31.8,0,60.95,15.9,60.95,42.39l-0.66,7.29h137.77c-3.31-101.35-76.84-154.34-196.74-154.34c-110.62,0-191.43,56.97-191.43,156.33
			c0,66.9,40.41,102.67,124.53,126.52l66.23,19.21c50.35,14.57,71.54,23.85,71.54,45.71c0,27.16-23.18,43.06-60.28,43.06
			c-49.01,0-73.53-17.23-74.85-65.58h-145.73c0,55.64,19.87,98.03,60.94,127.18c40.41,28.48,89.42,43.06,147.71,43.06
			c64.92,0,117.25-13.91,157.65-41.73c39.75-27.82,60.29-68.23,60.29-121.22c0-37.1-12.59-66.91-37.1-90.09
			C3162.04,1416.02,3119.65,1398.14,3058.05,1384.23z" />
		<polygon class="st3" id="H1" points="3537.59,1371.64 3401.13,1371.64 3401.13,1207.36 3255.4,1207.36 3255.4,1680.32 3401.13,1680.32
			3401.13,1492.86 3537.59,1492.86 3537.59,1680.32 3683.31,1680.32 3683.31,1207.36 3537.59,1207.36 		" />
		<rect x="3744.86" y="1207.36" class="st3" id="I" width="145.73" height="472.96" />
		<rect x="3956.14" y="1549.16" class="st3" id="dot" width="137.78" height="131.16" />

	</g>
</svg>
