<?xml version="1.0" encoding="UTF-8" standalone="no"?>
<svg xmlns:svg="http://www.w3.org/2000/svg" xmlns="http://www.w3.org/2000/svg" version="1.1" x="0px" y="0px"
   viewBox="0 0 4283.38 1835.63" style="enable-background:new 0 0 4283.38 1835.63;" xml:space="preserve">

   <style type="text/css">
      path,
      polygon {
         fill: #231F20;
      }
   </style>
   <g transform="translate(-179.5,-1443.5)">
      <polygon
         points="602.8,1376.94 602.8,1680.32 732.57,1680.32 740.58,1658.56 740.58,1207.36 533.25,1207.36 465.68,1485.57 464.36,1485.57 396.8,1207.36 189.46,1207.36 189.46,1680.32 327.24,1680.32 327.24,1376.94 328.57,1376.94 410.71,1680.32 519.34,1680.32 601.48,1376.94 "
         id="M" />
      <path class="st3"
         d="m 971.76,1374.07 c 26.78,-35.93 54.28,-72.75 105.67,-89.15 l -28.24,-77.55 H 906.78 l -99.46,270.01 c 95.05,-10.28 128.9,-55.63 164.44,-103.31 z"
         id="A0-top" />
      <path
         d="m 1011.78,1403.9 c -39.46,52.93 -88.1,118.06 -223.41,124.93 l -47.79,129.73 v 21.77 H 878.3 l 21.86,-67.57 h 150.37 l 19.87,67.57 h 151.03 l -126.88,-348.44 c -37.53,11.35 -57.54,38.16 -82.77,72.01 z"
         id="A0-bottom" />
      <polygon
         points="1373.06,1207.36 1227.33,1207.36 1227.33,1680.32 1373.06,1680.32 1373.06,1492.86 1509.52,1492.86 1509.52,1680.32 1655.25,1680.32 1655.25,1207.36 1509.52,1207.36 1509.52,1371.64 1373.06,1371.64 "
         id="H" />
      <polygon points="1977.12,1207.36 1834.7,1207.36 1734.44,1479.55 1880.63,1479.55 1880.63,1276.08 2002.14,1276.08 "
         id="a1-top" />
      <polygon
         points="2142.01,1660.17 2020.32,1325.99 1930.53,1325.99 1930.53,1529.46 1716.06,1529.46 1660.49,1680.32 1806.22,1680.32 1828.08,1612.76 1978.44,1612.76 1998.32,1680.32 2142.01,1680.32 "
         id="A1-bottom" />
      <path
         d="m 2503.02,1461.07 c 44.38,-15.9 70.88,-64.92 70.88,-118.57 0,-41.73 -14.57,-75.51 -43.72,-98.7 -29.81,-23.85 -66.24,-36.43 -107.97,-36.43 h -280.2 v 452.81 l 7.34,20.15 h 138.39 v -164.94 h 79.49 c 37.09,0 58.29,23.85 62.27,72.2 3.31,48.36 7.29,78.83 13.25,92.74 h 145.73 c -7.95,-13.25 -13.25,-43.06 -14.58,-79.49 -2.65,-79.49 -29.81,-123.88 -70.88,-139.77 z m -136.46,-47.04 h -78.83 v -94.06 h 70.88 c 43.06,0 69.55,11.92 69.55,47.03 0.01,31.8 -20.53,47.03 -61.6,47.03 z"
         id="R" />
      <rect x="2619.55" y="1207.36" width="145.73" height="472.95999" id="I0" />
      <path
         d="m 3058.05,1384.23 c -84.79,-19.21 -104.66,-33.12 -104.66,-51.67 0,-21.2 21.85,-31.8 52.32,-31.8 31.8,0 60.95,15.9 60.95,42.39 l -0.66,7.29 h 137.77 c -3.31,-101.35 -76.84,-154.34 -196.74,-154.34 -110.62,0 -191.43,56.97 -191.43,156.33 0,66.9 40.41,102.67 124.53,126.52 l 66.23,19.21 c 50.35,14.57 71.54,23.85 71.54,45.71 0,27.16 -23.18,43.06 -60.28,43.06 -49.01,0 -73.53,-17.23 -74.85,-65.58 h -145.73 c 0,55.64 19.87,98.03 60.94,127.18 40.41,28.48 89.42,43.06 147.71,43.06 64.92,0 117.25,-13.91 157.65,-41.73 39.75,-27.82 60.29,-68.23 60.29,-121.22 0,-37.1 -12.59,-66.91 -37.1,-90.09 -24.49,-22.53 -66.88,-40.41 -128.48,-54.32 z"
         id="S" />
      <polygon
         points="3401.13,1207.36 3255.4,1207.36 3255.4,1680.32 3401.13,1680.32 3401.13,1492.86 3537.59,1492.86 3537.59,1680.32 3683.31,1680.32 3683.31,1207.36 3537.59,1207.36 3537.59,1371.64 3401.13,1371.64 "
         id="H" />
      <rect x="3744.8601" y="1207.36" width="145.73" height="472.95999" id="I1" />
      <rect x="3956.1399" y="1549.16" width="137.78" height="131.16" id="dot" />
   </g>
</svg>
