<?xml version="1.0" encoding="UTF-8" standalone="no"?>
<svg xmlns:svg="http://www.w3.org/2000/svg" xmlns="http://www.w3.org/2000/svg" version="1.1" x="0px" y="0px"
   viewBox="0 0 4283.38 1835.63" xml:space="preserve">

   <style type="text/css">
      path, polygon {
         fill: #231F20;
      }
   </style>

   <g transform="translate(-180,-380)">
         <path
            d="m 335.85,452.06 h 79.49 c 37.09,0 58.29,23.85 62.27,72.2 3.31,48.36 7.29,78.83 13.25,92.74 h 133.76 l 5.77,-15.67 c -4.46,-15.63 -7.43,-37.99 -8.37,-63.82 -2.65,-79.49 -29.81,-123.87 -70.88,-139.77 44.38,-15.9 70.88,-64.92 70.88,-118.57 0,-41.73 -14.57,-75.52 -43.72,-98.7 -29.81,-23.85 -66.24,-36.43 -107.97,-36.43 H 190.13 V 617 H 335.86 V 452.06 Z m 0,-195.41 h 70.88 c 43.06,0 69.55,11.92 69.55,47.03 0,31.79 -20.54,47.03 -61.61,47.03 h -78.83 v -94.06 z"
            id="R"/>

         <polygon
            points="798.83,144.04 740.75,301.71 894.66,222.21 894.66,386.16 1008.08,327.57 941.24,144.04 "
            id="A-top" />
         <path
            d="M 770.34,617 792.2,549.43 H 942.57 L 962.44,617 h 151.03 L 1025.29,374.85 844.75,468.11 V 304.17 l -129.56,66.92 -84.81,230.24 c 1.83,6.42 3.89,11.81 6.2,15.67 z"
            id="A-bottom" />
         <polygon
            points="1182.31,144.04 1039.23,144.04 1167.74,617 1310.16,617 1359.84,328.85 1361.16,328.85 1412.17,617 1553.92,617 1686.4,144.04 1542.66,144.04 1483.71,440.14 1482.38,440.14 1426.74,144.04 1298.23,144.04 1241.27,436.16 1239.94,436.16 "
            id="W" />
   </g>
</svg>
