<?xml version="1.0" encoding="utf-8"?>
<!-- Generator: Adobe Illustrator 27.0.1, SVG Export Plug-In . SVG Version: 6.00 Build 0)  -->
<svg version="1.1" xmlns="http://www.w3.org/2000/svg" xmlns:xlink="http://www.w3.org/1999/xlink" x="0px" y="0px"
   viewBox="0 0 1550 550" style="enable-background:new 0 0 4283.38 1835.63;" xml:space="preserve">


   <g transform="translate(-180,-106)">

         <path class="st3" id="r0" d="M335.85,452.06h79.49c37.09,0,58.29,23.85,62.27,72.2c3.31,48.36,7.29,78.83,13.25,92.74h133.76l5.77-15.67
			c-4.46-15.63-7.43-37.99-8.37-63.82c-2.65-79.49-29.81-123.87-70.88-139.77c44.38-15.9,70.88-64.92,70.88-118.57
			c0-41.73-14.57-75.52-43.72-98.7c-29.81-23.85-66.24-36.43-107.97-36.43h-280.2V617h145.73V452.06z M335.85,256.65h70.88
			c43.06,0,69.55,11.92,69.55,47.03c0,31.79-20.54,47.03-61.61,47.03h-78.83V256.65z" />
         <polygon class="st3" id="a0-top"
            points="894.66,386.16 1008.08,327.57 941.24,144.04 798.83,144.04 740.75,301.71 894.66,222.21 		" />
         <path class="st3" id="a0-bottom" d="M770.34,617l21.86-67.57h150.37L962.44,617h151.03l-88.18-242.15l-180.54,93.26V304.17l-129.56,66.92
			l-84.81,230.24c1.83,6.42,3.89,11.81,6.2,15.67H770.34z" />
         <path class="st3" id="filler" d="M636.59,617c-2.31-3.86-4.37-9.25-6.2-15.67L624.61,617H636.59z" />
         <polygon class="st3" id="w" points="1310.16,617 1359.84,328.85 1361.16,328.85 1412.17,617 1553.92,617 1686.4,144.04 1542.66,144.04
			1483.71,440.14 1482.38,440.14 1426.74,144.04 1298.23,144.04 1241.27,436.16 1239.94,436.16 1182.31,144.04 1039.23,144.04
			1167.74,617 		" />


   </g>
</svg>
